<?xml version="1.0" standalone="no"?>
<!DOCTYPE svg PUBLIC "-//W3C//DTD SVG 20010904//EN"
 "http://www.w3.org/TR/2001/REC-SVG-20010904/DTD/svg10.dtd">
<svg version="1.0" xmlns="http://www.w3.org/2000/svg"
 width="600.000000pt" height="600.000000pt" viewBox="0 0 600.000000 600.000000"
 preserveAspectRatio="xMidYMid meet">
<g transform="translate(0.000000,600.000000) scale(0.100000,-0.100000)"
fill="#000000" stroke="none">
<path d="M3212 4390 c-46 -15 -84 -28 -85 -28 -18 -2 -107 -28 -157 -46 -36
-13 -72 -24 -80 -24 -18 0 -171 -47 -197 -60 -10 -5 -65 -22 -123 -37 -58 -15
-109 -30 -115 -34 -5 -4 -47 -16 -92 -26 -45 -11 -79 -23 -76 -28 3 -5 -3 -6
-14 -3 -20 6 -83 -43 -92 -73 -3 -9 -6 -88 -7 -176 -1 -130 2 -163 14 -177 13
-16 37 -18 206 -18 186 0 226 -6 212 -29 -5 -7 -2 -10 6 -9 20 4 23 -70 4 -91
-9 -10 -14 -20 -11 -23 7 -6 18 -6 -290 -10 -250 -3 -273 -4 -305 -23 -38 -23
-66 -64 -74 -109 -9 -51 53 -133 97 -127 4 1 7 -3 7 -8 0 -6 168 -10 427 -11
l427 -1 27 -25 c33 -32 33 -73 0 -108 -22 -23 -26 -24 -220 -27 -156 -3 -200
-7 -214 -19 -60 -50 -77 -79 -77 -129 0 -34 46 -106 77 -120 16 -8 228 -11
673 -11 641 0 650 0 670 20 12 12 26 18 32 14 7 -4 8 -3 4 4 -4 7 -1 12 6 12
29 0 41 44 44 159 5 154 7 151 -147 151 -70 0 -120 4 -124 10 -4 6 -3 10 2 9
4 -1 10 -1 13 0 3 1 75 2 160 3 85 0 161 5 168 11 6 5 12 6 12 1 0 -4 13 5 29
20 l30 28 1 190 c0 104 1 192 3 196 4 16 -39 72 -62 82 -16 6 -115 9 -262 8
-186 -2 -235 0 -232 10 4 9 49 12 172 13 91 1 170 1 174 0 4 -1 21 6 38 14
l30 16 -2 102 c-1 81 -5 109 -20 135 -11 19 -14 30 -7 27 7 -4 3 2 -9 13 -13
11 -23 26 -23 34 0 11 -2 11 -9 0 -6 -11 -12 -10 -26 5 -17 17 -42 18 -321 18
-247 0 -301 2 -296 13 3 8 13 11 26 8 25 -6 149 10 189 26 27 10 27 11 27 104
0 81 -3 99 -22 129 -42 63 -87 69 -216 25z m188 -26 c23 -22 25 -34 28 -118
l4 -94 -44 -7 c-90 -12 -694 -75 -733 -76 -22 0 -48 -3 -57 -7 -10 -4 252 -6
582 -4 549 3 602 2 635 -14 59 -28 69 -53 75 -181 l5 -113 -202 0 c-195 0
-203 -1 -213 -21 -9 -16 -8 -25 6 -40 16 -18 33 -19 264 -19 238 0 248 -1 266
-21 17 -19 19 -41 22 -197 4 -192 1 -213 -28 -242 -18 -18 -34 -20 -198 -20
-184 0 -202 -4 -202 -42 0 -30 34 -38 162 -38 l123 0 -3 -50 -4 -50 -704 -2
c-565 -2 -701 -1 -687 10 12 8 70 12 206 12 119 0 196 4 210 11 38 19 57 51
57 97 0 37 -6 50 -34 78 l-34 34 -434 0 c-475 0 -461 -2 -493 60 -19 37 -19
63 0 100 29 57 47 60 346 60 l271 0 34 34 c28 28 34 42 34 76 0 34 -6 48 -34
76 l-34 34 -196 0 -196 0 0 170 c0 205 -5 195 142 241 495 154 987 297 1008
292 14 -3 36 -16 50 -29z m-460 -1278 c0 -2 -8 -10 -17 -17 -16 -13 -17 -12
-4 4 13 16 21 21 21 13z m950 -147 c0 -46 -4 -55 -39 -90 l-39 -39 -654 0
c-717 0 -680 -3 -713 60 -19 36 -19 63 -1 98 l14 27 716 -3 716 -2 0 -51z"/>
<path d="M3310 4356 c0 -3 9 -10 20 -16 11 -6 20 -8 20 -6 0 3 -9 10 -20 16
-11 6 -20 8 -20 6z"/>
<path d="M2666 3665 c-9 -26 -7 -32 5 -12 6 10 9 21 6 23 -2 3 -7 -2 -11 -11z"/>
<path d="M3470 3591 c-50 -10 -88 -38 -111 -82 -37 -73 -18 -156 47 -205 l37
-29 259 -3 258 -3 0 166 0 165 -227 -1 c-126 -1 -244 -4 -263 -8z m461 -159
c-1 -70 -4 -128 -5 -129 -1 -2 -107 -3 -234 -3 -221 -1 -234 0 -267 20 -46 28
-57 50 -57 115 -1 58 14 88 57 114 24 14 60 16 268 13 l241 -2 -3 -128z"/>
<path d="M3474 3520 c-38 -15 -66 -61 -61 -97 7 -39 42 -79 77 -88 28 -6 95
29 85 45 -3 6 -1 10 5 10 6 0 9 4 6 9 -4 5 0 11 6 14 10 3 10 8 2 18 -5 8 -10
21 -9 29 1 19 -55 70 -75 69 -8 0 -25 -4 -36 -9z m76 -40 c41 -41 7 -120 -52
-120 -24 0 -68 44 -68 68 0 59 79 93 120 52z"/>
<path d="M3495 3429 c-3 -4 2 -6 10 -5 21 3 28 13 10 13 -9 0 -18 -4 -20 -8z"/>
<path d="M2625 3460 c-4 -6 -12 -7 -18 -4 -7 4 -8 3 -4 -1 13 -15 34 -14 34 1
0 17 -4 18 -12 4z"/>
<path d="M3360 3301 c0 -6 4 -13 10 -16 6 -3 7 1 4 9 -7 18 -14 21 -14 7z"/>
<path d="M3498 3213 c7 -3 16 -2 19 1 4 3 -2 6 -13 5 -11 0 -14 -3 -6 -6z"/>
<path d="M2505 2871 c-6 -11 13 -26 22 -17 4 3 1 6 -6 6 -7 0 -9 5 -6 10 3 6
4 10 1 10 -3 0 -7 -4 -11 -9z"/>
<path d="M2570 2552 c-21 -7 -60 -53 -65 -77 -2 -11 -6 -88 -10 -172 -5 -148
-5 -152 17 -173 38 -35 82 -38 114 -6 17 18 18 18 34 -1 23 -28 78 -25 109 6
22 23 23 30 17 99 -3 41 -6 116 -6 167 0 87 -2 94 -28 125 -26 30 -34 32 -98
35 -38 1 -76 0 -84 -3z m163 -50 c13 -15 16 -47 17 -191 l2 -174 -41 -1 -41
-1 0 65 0 65 -30 0 -30 0 0 -65 0 -65 -40 0 -40 0 0 174 c0 214 -2 211 110
211 61 0 80 -4 93 -18z"/>
<path d="M2610 2400 l0 -70 30 0 30 0 0 70 0 70 -30 0 -30 0 0 -70z"/>
<path d="M3338 2555 c-2 -2 -20 -5 -41 -7 -20 -1 -34 -4 -32 -7 7 -6 -36 -41
-45 -36 -3 2 -7 -2 -7 -10 0 -12 3 -12 15 -2 13 10 14 9 4 -10 -8 -14 -11 -72
-9 -172 l2 -151 33 -29 c17 -17 32 -29 32 -27 0 2 20 0 45 -4 24 -4 42 -3 40
1 -3 4 10 6 28 4 24 -2 43 4 62 19 24 19 29 31 32 79 1 31 -2 59 -7 62 -6 4
-8 10 -5 15 8 13 -85 2 -101 -11 -11 -9 -14 -7 -15 7 0 11 -1 45 -2 76 -2 51
0 55 14 42 8 -8 34 -14 57 -14 51 0 77 31 65 76 -4 16 -7 31 -8 34 -1 18 -35
51 -46 45 -8 -5 -10 -4 -5 3 4 7 0 12 -11 13 -10 1 -34 3 -54 4 -21 2 -39 2
-41 0z m111 -44 c8 -5 17 -30 21 -55 l7 -46 -44 0 c-42 0 -44 1 -41 28 3 23
-1 27 -24 30 l-27 3 -3 -140 -3 -141 31 0 c31 0 32 1 27 35 l-5 35 44 0 43 0
-3 -47 c-6 -71 -21 -83 -108 -83 -67 0 -74 2 -94 27 -20 26 -21 37 -18 179 2
109 7 156 17 167 10 13 31 17 90 17 42 0 82 -4 90 -9z"/>
<path d="M4031 2549 c-42 -9 -71 -37 -76 -75 -2 -16 -6 -94 -10 -174 -5 -141
-5 -146 17 -170 17 -19 32 -25 58 -24 55 2 62 3 56 13 -3 5 0 11 7 14 8 3 19
-4 25 -14 9 -14 22 -18 50 -16 70 4 72 10 72 203 0 162 -1 173 -22 200 -13 15
-16 24 -9 19 9 -5 12 -4 8 2 -8 13 -83 33 -117 31 -14 -1 -40 -5 -59 -9z m151
-46 c16 -14 18 -34 18 -192 l0 -176 -40 0 -40 0 0 65 0 65 -30 0 -30 0 0 -65
0 -65 -40 0 -40 0 0 174 c0 214 -1 211 108 211 56 0 80 -4 94 -17z"/>
<path d="M4060 2400 l0 -70 30 0 30 0 0 70 0 70 -30 0 -30 0 0 -70z"/>
<path d="M1783 2528 c-20 -22 -22 -33 -22 -203 -1 -183 3 -204 39 -214 56 -15
72 -13 88 10 9 13 17 27 17 31 0 3 3 10 8 14 4 4 7 3 7 -2 0 -5 10 -21 23 -36
19 -22 29 -26 62 -22 24 2 46 11 56 23 15 19 15 23 -7 68 -13 26 -24 54 -24
61 0 7 -7 27 -16 44 -14 26 -14 37 -3 77 6 25 20 64 31 85 18 39 16 82 -3 71
-5 -4 -9 -2 -9 3 0 4 -19 8 -42 8 -38 -1 -45 -5 -60 -34 -14 -30 -17 -31 -22
-14 -9 28 -31 43 -69 49 -25 3 -38 -1 -54 -19z m97 -88 c0 -44 4 -80 9 -80 5
0 23 35 39 78 28 75 30 77 66 80 20 2 36 0 36 -4 0 -5 -14 -45 -31 -90 l-31
-82 36 -96 c20 -53 36 -100 36 -104 0 -4 -18 -7 -40 -7 l-40 0 -28 77 c-36
102 -52 102 -52 0 l0 -78 -42 2 -43 2 -3 191 -2 191 45 0 45 0 0 -80z"/>
<path d="M1846 2328 c3 -5 10 -6 15 -3 13 9 11 12 -6 12 -8 0 -12 -4 -9 -9z"/>
<path d="M2140 2523 c-20 -26 -21 -36 -18 -205 3 -151 6 -180 20 -194 25 -25
82 -26 108 -2 20 19 23 19 39 3 27 -24 100 -24 117 0 22 29 20 377 -2 399 -8
9 -21 16 -27 17 -7 0 -25 2 -41 4 -20 3 -34 -2 -45 -16 l-16 -21 -19 21 c-29
32 -89 29 -116 -6z m100 -83 l0 -80 33 0 32 0 -3 80 -4 80 46 0 46 0 0 -192 0
-193 -45 0 -45 0 0 78 0 77 -30 0 -30 0 0 -78 0 -78 -41 2 -40 2 -2 191 -2
191 43 0 42 0 0 -80z m40 50 c0 -5 -2 -10 -4 -10 -3 0 -8 5 -11 10 -3 6 -1 10
4 10 6 0 11 -4 11 -10z"/>
<path d="M2884 2533 c-11 -12 -14 -53 -14 -207 0 -168 2 -195 17 -207 23 -19
80 -19 100 1 16 14 19 15 36 1 22 -20 77 -21 99 -2 15 13 17 37 17 195 l0 179
-29 27 c-27 26 -35 27 -120 27 -66 0 -95 -4 -106 -14z m206 -31 c30 -24 40
-111 17 -145 -9 -14 -12 -28 -7 -33 5 -5 10 -49 11 -98 l2 -89 -42 -1 -41 -1
0 78 c0 76 0 77 -25 77 -25 0 -25 -1 -25 -77 l0 -78 -40 1 -41 1 -2 192 -2
191 86 0 c69 0 91 -4 109 -18z"/>
<path d="M2980 2405 c0 -52 1 -55 25 -55 24 0 25 3 25 55 0 52 -1 55 -25 55
-24 0 -25 -3 -25 -55z"/>
<path d="M3591 2537 c-7 -7 -11 -76 -11 -208 0 -221 0 -221 71 -224 30 -2 44
3 52 16 10 17 13 17 29 2 26 -23 96 -25 119 -2 17 17 19 37 19 202 0 141 -3
188 -14 202 -18 25 -80 29 -112 8 -19 -12 -27 -13 -39 -3 -20 16 -100 21 -114
7z m99 -97 l0 -80 30 0 30 0 0 80 0 80 45 0 45 0 -2 -191 -3 -191 -42 -2 -43
-2 0 78 0 78 -30 0 -30 0 0 -78 0 -78 -41 2 -41 2 -1 191 -2 191 43 0 42 0 0
-80z"/>
<path d="M2686 1931 c-31 -12 -2 -23 54 -20 27 2 53 -1 57 -6 5 -4 2 -5 -4 -1
-9 5 -13 0 -13 -13 0 -16 -6 -21 -29 -21 -25 0 -28 -3 -23 -25 3 -16 11 -25
23 -25 12 0 19 -7 19 -20 0 -14 -7 -20 -23 -20 -20 0 -22 -4 -19 -40 4 -37 2
-40 -22 -40 l-26 0 0 105 c0 77 -3 105 -12 105 -10 0 -12 -25 -10 -97 1 -54 6
-105 9 -113 3 -8 5 -18 5 -22 -1 -5 15 -8 35 -8 20 0 34 3 30 6 -3 4 0 13 8
20 7 8 11 22 8 33 -3 13 2 23 16 30 23 13 26 5 21 -48 -1 -14 2 -21 9 -17 6 4
11 0 11 -8 0 -13 12 -16 54 -16 31 0 58 5 62 12 5 7 3 8 -6 3 -8 -5 -11 -4 -7
3 4 5 16 8 27 5 11 -3 18 -9 15 -13 -7 -11 59 -22 88 -15 34 9 62 61 58 110
-2 22 0 38 2 35 3 -3 7 -27 9 -54 3 -53 28 -80 27 -29 0 35 -23 166 -31 178
-3 6 8 10 27 10 18 0 31 -4 29 -10 -2 -5 0 -44 4 -85 l8 -75 8 55 c13 100 17
110 36 110 14 0 21 -9 25 -32 3 -18 9 -55 13 -83 l8 -50 8 83 c7 78 8 82 32
82 20 0 24 -4 20 -22 -19 -87 -26 -133 -26 -158 0 -26 -4 -30 -29 -30 -24 0
-29 5 -35 31 -3 17 -6 45 -6 61 0 17 -4 27 -10 23 -5 -3 -10 -21 -10 -38 0
-59 -10 -76 -44 -79 -42 -4 -35 -22 10 -26 24 -2 34 0 29 7 -6 10 1 13 23 10
4 -1 6 -5 4 -10 -1 -5 14 -9 35 -9 20 0 33 3 30 7 -4 3 0 11 8 17 16 12 26 41
31 96 1 19 5 54 8 77 5 35 2 45 -16 57 -20 14 -24 14 -46 0 -15 -10 -27 -12
-31 -6 -10 16 -151 14 -157 -3 -4 -10 -10 -9 -25 6 -24 24 -91 26 -113 3 -29
-28 -35 -49 -33 -111 2 -53 0 -59 -15 -55 -18 4 -23 36 -18 119 2 40 -37 71
-69 54 -13 -8 -28 -8 -46 -1 -30 12 -62 12 -89 1z m174 -106 c0 -84 0 -85 25
-85 18 0 25 -5 25 -20 0 -17 -7 -20 -45 -20 l-45 0 0 105 c0 98 1 105 20 105
18 0 20 -7 20 -85z m208 -14 c3 -104 -4 -121 -50 -121 -61 0 -68 12 -68 108 0
104 7 114 70 110 l45 -3 3 -94z m-268 35 c0 -3 -4 -8 -10 -11 -5 -3 -10 -1
-10 4 0 6 5 11 10 11 6 0 10 -2 10 -4z"/>
<path d="M2999 1870 c-3 -55 0 -140 5 -140 3 0 11 0 16 0 6 0 10 32 10 75 0
60 -3 75 -15 75 -8 0 -15 -4 -16 -10z"/>
<path d="M3591 799 c-15 -17 -19 -17 -37 -4 -23 18 -79 21 -68 3 5 -8 2 -9
-12 -4 -42 18 -55 18 -73 2 -16 -15 -19 -15 -31 -1 -15 18 -67 20 -73 3 -3
-10 -9 -10 -26 0 -25 14 -75 16 -66 2 3 -5 -3 -10 -14 -10 -11 0 -23 5 -26 10
-8 14 -48 13 -63 -2 -9 -9 -18 -9 -37 0 -32 15 -79 16 -70 2 8 -13 -1 -13 -25
2 -16 10 -25 10 -47 -4 -24 -14 -30 -14 -41 -2 -18 19 -49 17 -71 -5 -14 -14
-18 -32 -17 -72 2 -88 5 -91 137 -94 90 -3 119 0 138 12 22 14 25 14 33 -1 10
-17 45 -21 67 -7 9 6 23 5 37 -1 28 -13 78 -2 68 14 -4 6 3 4 17 -5 29 -21 58
-22 87 -1 19 13 22 24 22 80 l0 64 30 0 c20 0 30 -5 30 -15 0 -9 -6 -12 -15
-9 -9 4 -15 0 -15 -10 0 -9 7 -16 15 -16 8 0 15 -7 15 -15 0 -9 -6 -12 -15 -9
-9 4 -15 0 -15 -10 0 -9 7 -16 15 -16 8 0 15 -7 15 -15 0 -10 -10 -15 -29 -15
-31 0 -50 -15 -28 -23 6 -2 43 -3 81 -2 54 2 73 7 83 21 7 10 11 24 9 31 -3 7
-1 13 5 13 6 0 8 7 5 16 -4 10 -1 14 6 11 7 -2 13 -15 13 -28 0 -70 63 -94
103 -39 13 17 18 30 12 30 -6 0 -9 4 -5 9 7 12 -4 83 -15 101 -4 7 -26 16 -50
20 -34 6 -45 4 -59 -11z m29 -15 c0 -3 -5 -14 -10 -25 -16 -28 -32 -23 -18 6
10 22 28 35 28 19z m-733 -63 c1 -30 4 -60 7 -67 3 -7 -2 -10 -15 -7 -13 4
-19 14 -19 35 0 18 -4 27 -11 22 -6 -3 -8 -17 -5 -30 5 -17 2 -24 -9 -24 -12
0 -15 14 -15 66 l0 65 33 -3 c31 -3 32 -4 34 -57z m83 44 c0 -9 -6 -12 -15 -9
-9 4 -15 0 -15 -10 0 -9 7 -16 15 -16 8 0 15 -7 15 -15 0 -9 -6 -12 -15 -9 -9
4 -15 0 -15 -9 0 -8 9 -17 21 -20 27 -7 15 -27 -16 -27 -22 0 -24 4 -27 65
l-3 65 28 0 c17 0 27 -5 27 -15z m95 -50 l0 -60 -32 -3 -33 -3 0 66 0 66 33
-3 32 -3 0 -60z m105 45 c0 -11 -4 -20 -10 -20 -5 0 -10 5 -10 10 0 6 -4 10
-10 10 -5 0 -10 -20 -10 -45 0 -45 12 -60 24 -29 3 8 10 12 16 9 20 -13 -10
-46 -38 -43 -25 3 -27 7 -30 52 -4 64 2 76 38 76 23 0 30 -4 30 -20z m95 -45
l0 -60 -30 0 c-29 0 -30 2 -33 49 -4 65 2 78 35 74 27 -3 28 -5 28 -63z m100
0 l0 -60 -35 -5 -35 -6 3 69 4 68 31 -3 32 -3 0 -60z m192 -2 c2 -50 0 -63
-12 -63 -10 0 -15 10 -15 30 0 17 -4 30 -10 30 -5 0 -10 -13 -10 -30 0 -20 -5
-30 -15 -30 -12 0 -15 13 -14 66 l2 65 36 -3 36 -3 2 -62z m136 52 c7 -17 -9
-30 -18 -15 -9 15 -25 12 -25 -4 0 -8 10 -16 23 -18 18 -2 22 -9 22 -38 0 -32
-3 -35 -31 -38 -25 -2 -33 1 -37 17 -3 14 0 21 9 21 8 0 14 -4 14 -10 0 -5 5
-10 10 -10 6 0 10 9 10 21 0 11 -4 18 -8 15 -20 -12 -36 15 -33 57 1 22 56 24
64 2z"/>
<path d="M2844 745 c4 -24 16 -30 16 -7 0 12 -4 22 -9 22 -5 0 -8 -7 -7 -15z"/>
<path d="M3022 714 c0 -57 20 -54 23 4 2 28 -2 42 -10 42 -7 0 -12 -17 -13
-46z"/>
<path d="M3224 715 c0 -26 5 -44 11 -42 14 5 14 87 -1 87 -7 0 -11 -17 -10
-45z"/>
<path d="M3330 715 c0 -25 5 -45 10 -45 6 0 10 20 10 45 0 25 -4 45 -10 45 -5
0 -10 -20 -10 -45z"/>
<path d="M3510 740 c0 -11 5 -20 10 -20 6 0 10 9 10 20 0 11 -4 20 -10 20 -5
0 -10 -9 -10 -20z"/>
<path d="M2101 801 c-21 -14 4 -23 60 -23 l49 1 0 -65 c0 -36 -4 -64 -10 -64
-5 0 -10 25 -10 55 0 30 -4 55 -10 55 -5 0 -10 -25 -10 -55 0 -42 -3 -55 -15
-55 -12 0 -15 13 -15 55 0 30 -4 55 -10 55 -5 0 -10 -24 -10 -54 0 -34 -5 -56
-12 -59 -10 -3 -12 13 -10 65 3 55 1 69 -10 66 -20 -7 -23 -121 -3 -138 11 -9
59 -13 158 -15 157 -2 190 1 180 19 -3 6 3 3 14 -6 25 -23 45 -23 74 1 21 17
22 23 12 40 -8 13 -9 22 -2 26 6 5 6 12 -3 23 -7 9 -8 13 -2 9 19 -11 10 37
-10 56 -21 19 -56 23 -56 6 0 -5 -5 -7 -12 -3 -7 4 -8 3 -4 -4 4 -7 20 -12 37
-12 19 0 29 -5 29 -15 0 -9 -6 -12 -15 -9 -9 4 -15 0 -15 -10 0 -9 7 -16 15
-16 8 0 15 -7 15 -15 0 -9 -6 -12 -15 -9 -9 4 -15 0 -15 -9 0 -8 9 -17 21 -20
27 -7 15 -27 -17 -27 -23 0 -24 3 -24 58 0 53 -3 60 -30 80 -34 25 -62 28 -80
8 -12 -15 -44 -10 -34 5 8 14 -50 11 -64 -3 -9 -9 -17 -10 -30 -1 -21 13 -92
15 -111 4z m210 -63 c0 -24 2 -53 5 -65 3 -16 -1 -23 -11 -23 -9 0 -15 9 -15
25 0 14 -4 25 -10 25 -5 0 -10 -11 -10 -25 0 -16 -6 -25 -15 -25 -12 0 -15 13
-15 58 0 32 3 62 7 65 3 4 19 7 35 7 26 0 28 -3 29 -42z m107 -11 c4 -57 -9
-77 -49 -77 l-29 0 0 66 0 65 38 -3 c37 -3 37 -3 40 -51z"/>
<path d="M2270 740 c0 -11 5 -20 10 -20 6 0 10 9 10 20 0 11 -4 20 -10 20 -5
0 -10 -9 -10 -20z"/>
<path d="M2370 715 c0 -25 5 -45 10 -45 6 0 10 20 10 45 0 25 -4 45 -10 45 -5
0 -10 -20 -10 -45z"/>
<path d="M2566 786 c-17 -28 -23 -136 -6 -136 12 0 23 62 18 101 -5 29 -4 30
31 27 l36 -3 2 -54 c3 -60 -5 -71 -49 -71 -31 0 -45 -15 -22 -24 28 -11 54 -6
74 14 17 17 21 18 34 5 8 -8 20 -15 26 -15 19 0 42 30 36 46 -3 8 0 27 7 42 7
15 13 34 12 42 -1 8 -3 21 -3 29 -1 8 -8 11 -18 7 -8 -3 -12 -2 -9 4 3 6 2 10
-4 10 -5 0 -13 -5 -16 -10 -5 -8 -11 -7 -21 1 -10 8 -18 9 -27 0 -8 -6 -16 -8
-19 -5 -4 3 -19 8 -36 10 -23 4 -33 0 -46 -20z m134 -32 c0 -14 4 -23 10 -19
6 3 10 15 10 26 0 10 7 19 15 19 8 0 15 -2 15 -4 0 -2 -7 -20 -15 -39 -8 -20
-15 -48 -15 -62 0 -16 -6 -25 -16 -25 -12 0 -15 6 -11 21 3 11 -1 39 -9 61
-17 50 -17 48 1 48 9 0 15 -10 15 -26z"/>
<path d="M3760 786 c-14 -16 -20 -31 -16 -42 3 -9 1 -22 -4 -30 -8 -9 -7 -19
4 -37 9 -13 13 -26 10 -29 -3 -4 3 -11 13 -16 18 -9 150 -9 159 1 3 3 18 0 34
-6 21 -8 35 -8 55 1 18 8 32 9 45 2 28 -15 47 -12 69 11 23 25 32 64 18 78 -7
7 -6 15 1 24 9 10 5 19 -14 40 -25 27 -69 36 -76 16 -3 -9 -14 -8 -40 1 -29
11 -43 11 -63 2 -32 -15 -48 -15 -40 -2 10 16 -45 12 -61 -5 -9 -8 -22 -15
-30 -15 -8 0 -17 7 -20 15 -8 21 -17 19 -44 -9z m265 -54 c0 -69 -7 -82 -46
-82 l-29 0 0 64 0 65 38 4 c20 2 37 4 37 5 0 1 0 -24 0 -56z m-225 -2 c0 -38
4 -50 15 -50 8 0 15 -7 15 -15 0 -10 -10 -15 -30 -15 l-30 0 0 65 c0 51 3 65
15 65 11 0 15 -12 15 -50z m122 -15 c2 -47 0 -65 -9 -65 -7 0 -13 11 -13 25 0
14 -4 25 -10 25 -5 0 -10 -11 -10 -25 0 -16 -6 -25 -15 -25 -12 0 -15 13 -15
58 0 67 3 72 41 72 27 0 27 -2 31 -65z m201 50 c4 -8 1 -18 -5 -21 -7 -4 -14
-2 -16 4 -5 17 -22 15 -22 -3 0 -8 9 -15 19 -15 21 0 35 -38 25 -65 -9 -22
-68 -17 -72 8 -2 10 3 17 12 17 9 0 16 -4 16 -10 0 -5 5 -10 10 -10 6 0 10 9
10 20 0 12 -5 17 -13 14 -21 -8 -40 22 -33 51 5 19 13 25 35 25 16 0 31 -6 34
-15z"/>
<path d="M3980 739 c0 -11 5 -17 10 -14 6 3 10 13 10 21 0 8 -4 14 -10 14 -5
0 -10 -9 -10 -21z"/>
<path d="M3980 690 c0 -11 5 -20 10 -20 6 0 10 9 10 20 0 11 -4 20 -10 20 -5
0 -10 -9 -10 -20z"/>
<path d="M3880 734 c0 -14 4 -23 10 -19 6 3 10 15 10 26 0 10 -4 19 -10 19 -5
0 -10 -12 -10 -26z"/>
<path d="M2600 745 c0 -8 5 -15 10 -15 6 0 10 7 10 15 0 8 -4 15 -10 15 -5 0
-10 -7 -10 -15z"/>
<path d="M2600 690 c0 -11 5 -20 10 -20 6 0 10 9 10 20 0 11 -4 20 -10 20 -5
0 -10 -9 -10 -20z"/>
</g>
</svg>
